<?xml version="1.0" standalone="no"?>
<!DOCTYPE svg PUBLIC "-//W3C//DTD SVG 20010904//EN"
 "http://www.w3.org/TR/2001/REC-SVG-20010904/DTD/svg10.dtd">
<svg version="1.0" xmlns="http://www.w3.org/2000/svg"
 width="1200.000000pt" height="600.000000pt" viewBox="0 0 1200.000000 600.000000"
 preserveAspectRatio="xMidYMid meet">

<g transform="translate(0.000000,600.000000) scale(0.100000,-0.100000)"
fill="#000000" stroke="none">
<path d="M0 3000 l0 -3000 6000 0 6000 0 0 3000 0 3000 -6000 0 -6000 0 0
-3000z m6053 1621 c48 -53 53 -75 25 -103 -13 -13 -29 -22 -35 -20 -16 4 -17
-30 -1 -46 15 -15 52 -16 42 -1 -6 11 14 59 25 59 4 0 12 -9 19 -21 11 -18 11
-24 -4 -40 -9 -11 -14 -22 -11 -25 8 -8 57 23 57 36 0 17 28 11 32 -6 5 -28
58 30 58 63 0 28 52 103 71 103 16 0 9 -74 -12 -120 -30 -66 -59 -164 -51
-171 4 -3 21 -11 37 -17 17 -5 39 -13 49 -18 16 -6 18 -4 13 18 -8 31 17 68
46 68 21 0 21 -1 -3 -13 -47 -23 -30 -107 21 -107 10 0 22 -6 26 -13 4 -7 31
-28 58 -47 125 -84 297 -282 381 -440 298 -557 267 -1298 -77 -1819 -99 -150
-270 -310 -406 -379 -42 -21 -44 -25 -41 -59 2 -28 9 -41 28 -50 24 -12 24
-13 3 -13 -26 0 -56 39 -51 67 4 22 -8 22 -92 -7 -105 -35 -124 -40 -166 -40
-61 0 -87 -10 -73 -26 9 -11 7 -14 -9 -14 -14 0 -20 5 -16 14 6 15 -23 26 -73
26 -39 0 -179 37 -243 64 -12 5 -21 -4 -34 -34 -14 -33 -22 -40 -46 -40 -17 0
-30 7 -35 18 -5 14 -4 15 6 4 27 -26 69 0 69 44 0 26 -49 64 -82 64 -10 0 -18
4 -18 8 0 5 -21 24 -47 43 -87 62 -215 193 -281 288 -132 189 -219 402 -267
656 -22 112 -25 157 -25 341 0 195 2 223 30 359 35 175 74 293 145 436 93 187
215 343 354 450 42 32 84 65 94 74 10 9 28 20 41 25 13 5 28 22 34 39 9 26 7
33 -13 55 -13 14 -19 26 -12 26 26 0 40 -20 41 -54 1 -20 3 -36 6 -36 11 0 96
34 109 44 7 6 21 11 30 11 9 1 28 2 44 3 23 2 27 6 22 25 -6 27 8 52 24 42 7
-4 11 -16 9 -28 -2 -16 2 -22 17 -22 15 0 21 8 23 33 4 37 22 34 22 -4 0 -17
5 -24 20 -24 11 0 20 6 20 13 0 15 37 53 45 45 2 -2 6 -15 8 -29 4 -26 37 -40
37 -16 0 9 3 22 6 30 4 11 -6 17 -38 23 -24 5 -49 8 -56 7 -9 -1 -8 4 3 17 9
10 14 24 10 30 -4 7 2 14 14 17 23 6 29 33 9 34 -20 0 -61 58 -54 74 3 8 12
15 20 15 10 0 13 6 10 15 -12 29 24 15 59 -24z m-319 -22 c27 -32 34 -77 15
-96 -13 -13 -5 -43 11 -43 5 0 10 7 10 16 0 9 5 14 11 12 6 -2 10 -8 10 -13 0
-14 36 -26 54 -19 17 7 19 -4 6 -24 -5 -9 -18 -11 -37 -6 -24 5 -27 4 -16 -7
14 -15 16 -59 3 -59 -5 0 -12 11 -15 25 -4 14 -13 25 -22 25 -11 0 -13 -6 -9
-20 4 -11 2 -20 -4 -20 -6 0 -11 8 -11 18 0 9 -8 40 -19 67 -22 59 -37 175
-22 175 5 0 21 -14 35 -31z m236 -54 c7 5 7 -7 1 -55 -1 -5 -51 51 -51 57 0 2
6 12 12 23 13 20 13 20 21 -5 5 -14 13 -23 17 -20z m-54 -62 c-4 -16 -3 -23 2
-16 6 9 11 8 19 -5 8 -14 7 -18 -6 -19 -9 -1 -27 -4 -41 -8 -18 -5 -21 -4 -11
3 7 5 11 14 8 18 -7 13 11 54 24 54 7 0 9 -10 5 -27z m-518 -23 c-5 -32 4 -45
37 -53 16 -4 15 -5 -5 -6 -26 -1 -60 29 -60 52 0 12 19 37 28 37 2 0 2 -14 0
-30z m1236 -6 c7 -19 -10 -54 -27 -54 -8 0 -8 3 2 9 9 6 11 18 7 35 -7 28 8
36 18 10z m-179 -4 c3 -5 -1 -10 -10 -10 -9 0 -13 5 -10 10 3 6 8 10 10 10 2
0 7 -4 10 -10z m-882 -7 c-7 -2 -19 -2 -25 0 -7 3 -2 5 12 5 14 0 19 -2 13 -5z
m786 -27 c8 -10 8 -16 -1 -24 -10 -8 -16 -4 -25 14 -9 19 -8 24 2 24 7 0 18
-6 24 -14z m-654 -6 c18 -8 17 -9 -7 -9 -16 -1 -28 -5 -28 -11 0 -5 -7 -10
-15 -10 -15 0 -21 21 -8 33 8 9 33 8 58 -3z m752 -72 c-3 -8 -6 -5 -6 6 -1 11
2 17 5 13 3 -3 4 -12 1 -19z m-867 2 c0 -5 -4 -10 -10 -10 -5 0 -10 5 -10 10
0 6 5 10 10 10 6 0 10 -4 10 -10z m840 -6 c0 -8 -4 -12 -10 -9 -5 3 -10 10
-10 16 0 5 5 9 10 9 6 0 10 -7 10 -16z m-830 -2835 c0 -6 -4 -7 -10 -4 -5 3
-10 11 -10 16 0 6 5 7 10 4 6 -3 10 -11 10 -16z m820 -14 c0 -8 -4 -15 -10
-15 -5 0 -10 7 -10 15 0 8 5 15 10 15 6 0 10 -7 10 -15z m-526 -50 c3 -9 0
-15 -9 -15 -8 0 -15 7 -15 15 0 8 4 15 9 15 5 0 11 -7 15 -15z m256 8 c0 -5
-4 -15 -10 -23 -11 -18 -25 -7 -17 15 6 15 27 21 27 8z m490 -34 c0 -33 -18
-29 -22 6 -3 27 -1 32 9 23 7 -6 13 -19 13 -29z m-1246 -16 c6 -18 4 -22 -8
-17 -10 4 -16 18 -16 38 1 33 11 24 24 -21z m276 38 c0 -5 7 -17 16 -25 14
-15 14 -16 -4 -16 -23 0 -46 25 -37 40 8 13 25 13 25 1z m288 -13 c3 -13 -3
-18 -22 -18 -20 0 -26 5 -26 21 0 15 5 20 22 17 13 -2 24 -11 26 -20z m146 13
c9 -14 -21 -33 -45 -29 -22 3 -22 4 -5 21 19 18 42 22 50 8z m261 -11 c8 -13
-13 -40 -30 -40 -10 0 -11 5 -2 25 13 27 22 31 32 15z m-508 -6 c-3 -3 -12 -4
-19 -1 -8 3 -5 6 6 6 11 1 17 -2 13 -5z m323 -4 c0 -5 -2 -10 -4 -10 -3 0 -8
5 -11 10 -3 6 -1 10 4 10 6 0 11 -4 11 -10z m410 6 c0 -3 -4 -8 -10 -11 -5 -3
-10 -1 -10 4 0 6 5 11 10 11 6 0 10 -2 10 -4z m-1035 -26 c3 -5 2 -10 -4 -10
-5 0 -13 5 -16 10 -3 6 -2 10 4 10 5 0 13 -4 16 -10z m920 0 c-3 -5 -12 -10
-18 -10 -7 0 -6 4 3 10 19 12 23 12 15 0z m-452 -31 c14 -10 1 -39 -18 -39
-19 0 -33 32 -17 38 7 2 12 11 13 20 0 14 2 14 6 2 3 -8 10 -18 16 -21z m-68
-9 c-6 -9 -9 -9 -16 1 -10 17 0 34 13 21 6 -6 7 -16 3 -22z m125 3 c0 -13 -3
-13 -15 -3 -8 7 -12 16 -9 21 8 13 24 1 24 -18z"/>
<path d="M5996 4597 c13 -42 52 -59 74 -32 11 13 7 15 -23 15 -27 0 -35 4 -31
14 3 7 -2 16 -11 20 -13 5 -15 2 -9 -17z"/>
<path d="M5740 4226 c0 -39 2 -44 20 -39 11 3 26 15 32 26 9 17 7 24 -12 39
-33 27 -40 22 -40 -26z m30 3 c0 -11 -4 -18 -10 -14 -5 3 -7 12 -3 20 7 21 13
19 13 -6z"/>
<path d="M5820 4226 c0 -27 4 -45 10 -41 9 5 5 74 -5 84 -3 2 -5 -17 -5 -43z"/>
<path d="M5949 4263 c-6 -37 -2 -73 8 -73 27 0 43 14 43 36 0 30 -17 31 -23 2
-3 -17 -5 -14 -6 10 0 17 -5 32 -11 32 -5 0 -11 -3 -11 -7z"/>
<path d="M6030 4231 c0 -23 5 -41 10 -41 6 0 10 15 10 34 0 19 -4 38 -10 41
-6 4 -10 -10 -10 -34z"/>
<path d="M6158 4264 c-12 -11 -10 -62 3 -69 14 -10 15 -5 9 38 -3 22 -8 35
-12 31z"/>
<path d="M6230 4231 c0 -43 8 -54 29 -42 9 6 10 11 2 15 -6 4 -11 20 -11 37 0
16 -4 29 -10 29 -5 0 -10 -18 -10 -39z"/>
<path d="M5870 4248 c1 -18 25 -48 39 -48 17 0 13 25 -7 43 -22 20 -32 21 -32
5z"/>
<path d="M6075 4250 c-11 -18 7 -60 26 -60 10 0 19 5 19 10 0 6 0 13 0 18 0 4
-6 7 -12 7 -7 0 -12 8 -10 18 3 18 -13 23 -23 7z"/>
<path d="M6021 4078 c-1 -40 -6 -77 -11 -83 -13 -15 -2 -25 27 -25 20 0 23 5
23 39 0 35 2 39 27 39 26 0 53 24 53 49 0 27 -39 53 -79 53 l-38 0 -2 -72z
m69 23 c0 -28 -15 -49 -27 -38 -8 8 7 67 18 67 5 0 9 -13 9 -29z"/>
<path d="M5832 4132 c-10 -7 -9 -17 3 -51 8 -24 15 -63 15 -87 0 -49 -1 -48
35 -34 22 9 24 13 15 31 -7 12 -10 30 -7 40 3 10 1 22 -4 25 -12 7 -12 64 1
64 12 0 24 -45 16 -59 -11 -17 12 -22 28 -5 19 18 20 37 6 65 -8 14 -21 19
-53 19 -23 0 -48 -4 -55 -8z"/>
<path d="M6190 4053 c-18 -32 -41 -63 -49 -70 -12 -9 -13 -14 -4 -23 14 -15
34 -4 27 14 -6 16 21 40 36 31 7 -5 9 -20 6 -40 -6 -28 -3 -33 16 -38 12 -4
23 -5 25 -4 1 2 5 44 9 95 6 86 6 92 -12 92 -13 0 -31 -20 -54 -57z m25 -12
c3 -5 1 -12 -5 -16 -5 -3 -10 1 -10 9 0 18 6 21 15 7z"/>
<path d="M5680 4058 c0 -30 15 -52 29 -44 7 5 11 -1 11 -16 0 -16 -3 -19 -9
-10 -7 11 -9 11 -14 -1 -8 -21 1 -27 34 -20 24 5 29 2 35 -21 7 -30 13 -31 39
-12 17 13 15 17 -36 79 -56 68 -89 85 -89 45z"/>
<path d="M6370 4041 c0 -5 -21 -37 -46 -72 -44 -59 -45 -63 -28 -76 24 -18 31
-16 37 7 8 33 27 23 27 -15 0 -24 6 -37 20 -45 19 -10 20 -8 20 53 0 59 2 65
25 75 14 7 33 12 43 12 15 0 15 2 -1 18 -16 15 -19 15 -30 1 -17 -22 -47 -32
-47 -15 0 7 7 19 15 26 12 10 13 16 4 26 -13 16 -39 19 -39 5z"/>
<path d="M5507 3969 c-17 -10 -16 -12 8 -37 14 -14 40 -47 57 -74 l31 -47 39
31 c24 19 37 36 34 45 -3 8 -6 17 -6 19 0 2 -4 4 -10 4 -5 0 -10 -9 -10 -19 0
-37 -18 -31 -59 20 -23 29 -41 56 -41 60 0 12 -21 11 -43 -2z"/>
<path d="M5706 3924 c3 -33 6 -35 24 -23 11 8 12 12 3 16 -7 2 -13 11 -13 19
0 8 -4 14 -9 14 -4 0 -7 -12 -5 -26z"/>
<path d="M6529 3897 c-19 -13 -53 -34 -76 -47 -43 -24 -51 -34 -34 -45 6 -3
15 4 21 15 13 24 38 26 47 3 4 -10 -2 -22 -15 -33 l-21 -18 20 -18 c20 -18 21
-18 35 0 7 10 28 47 46 82 39 76 31 98 -23 61z m-9 -36 c0 -12 -20 -25 -27
-18 -7 7 6 27 18 27 5 0 9 -4 9 -9z"/>
<path d="M6000 3870 c0 -22 5 -40 10 -40 6 0 10 18 10 40 0 22 -4 40 -10 40
-5 0 -10 -18 -10 -40z"/>
<path d="M6075 3898 c-8 -25 -10 -63 -2 -65 51 -18 74 42 26 68 -14 7 -20 6
-24 -3z"/>
<path d="M5920 3884 c0 -24 19 -54 34 -54 11 0 10 7 -2 35 -17 37 -32 46 -32
19z"/>
<path d="M6166 3848 c-9 -47 8 -54 21 -8 8 31 7 40 -2 40 -7 0 -15 -14 -19
-32z"/>
<path d="M5400 3857 c0 -8 17 -38 38 -68 21 -30 41 -63 45 -73 6 -15 10 -16
23 -5 14 12 14 14 -4 20 -29 11 -36 29 -18 47 14 15 18 14 39 -6 l24 -22 19
21 c14 16 16 23 6 26 -7 3 -41 20 -77 39 -68 36 -95 42 -95 21z m70 -57 c0 -5
-4 -10 -9 -10 -6 0 -13 5 -16 10 -3 6 1 10 9 10 9 0 16 -4 16 -10z"/>
<path d="M5810 3861 c0 -8 43 -41 55 -41 10 0 5 19 -11 34 -17 17 -44 22 -44
7z"/>
<path d="M6627 3823 c-12 -11 -8 -21 11 -25 12 -2 1 -15 -40 -46 -31 -23 -62
-42 -68 -42 -14 0 -12 -11 4 -33 13 -17 18 -16 74 27 66 50 72 53 72 31 0 -17
16 -20 25 -5 6 10 -52 100 -65 100 -4 0 -10 -3 -13 -7z"/>
<path d="M5900 3785 c-105 -32 -232 -101 -245 -133 -3 -8 10 -3 30 12 153 117
382 135 555 45 172 -89 327 -300 375 -510 9 -41 21 -87 26 -103 5 -16 9 -99 9
-184 0 -86 2 -153 4 -151 2 2 6 48 9 102 20 319 -76 595 -270 777 -139 132
-340 191 -493 145z"/>
<path d="M5309 3748 c-12 -22 -11 -24 38 -54 13 -9 15 -15 7 -23 -8 -9 -18 -6
-38 10 -21 17 -29 19 -41 9 -17 -14 -20 -40 -6 -40 5 0 39 -20 75 -44 61 -41
67 -43 76 -26 15 28 13 35 -20 47 -16 6 -30 18 -30 27 0 22 22 20 48 -4 28
-26 36 -25 50 5 9 19 9 25 -1 25 -14 0 -120 69 -125 82 -6 15 -21 8 -33 -14z"/>
<path d="M5940 3716 c0 -20 -4 -36 -10 -36 -5 0 -10 14 -10 30 0 21 -5 30 -16
30 -13 0 -15 -7 -11 -35 8 -47 -9 -54 -23 -10 -15 44 -31 36 -23 -12 5 -28 3
-35 -8 -31 -8 2 -15 14 -17 26 -5 35 -22 25 -22 -13 0 -19 -4 -35 -10 -35 -5
0 -10 4 -10 8 0 5 -7 17 -16 28 -14 18 -15 16 -10 -23 7 -48 -5 -56 -23 -16
-16 35 -36 17 -22 -19 13 -35 1 -44 -20 -16 -22 29 -36 16 -20 -18 15 -35 -2
-56 -19 -24 -8 15 -15 19 -22 12 -7 -7 -6 -17 2 -31 16 -30 3 -46 -21 -25 -25
22 -33 13 -18 -20 14 -31 6 -44 -16 -26 -22 18 -31 4 -15 -25 15 -27 7 -46
-12 -27 -18 18 -28 15 -28 -8 0 -11 5 -20 10 -20 6 0 10 -7 10 -15 0 -11 -7
-14 -25 -9 -19 5 -25 2 -25 -9 0 -9 5 -19 10 -22 19 -12 11 -37 -9 -30 -25 8
-39 -15 -17 -27 23 -13 21 -41 -3 -33 -26 8 -39 -15 -18 -30 23 -17 21 -35 -3
-35 -24 0 -26 -18 -3 -35 19 -14 9 -37 -12 -28 -21 8 -19 -27 3 -43 16 -13 16
-14 -5 -20 -27 -8 -30 -29 -5 -43 16 -10 15 -12 -6 -29 l-24 -18 23 -16 23
-15 -22 -19 c-27 -23 -28 -34 -2 -34 25 0 26 -18 3 -36 -17 -13 -17 -15 2 -29
17 -13 18 -18 7 -36 -14 -22 -8 -39 14 -39 19 0 18 -19 -1 -26 -27 -11 -17
-34 15 -34 33 0 68 31 166 151 34 41 76 82 93 92 l31 18 0 -33 c0 -54 28 -170
44 -187 19 -19 20 -11 2 54 -12 48 -14 255 -1 274 2 5 -3 8 -12 7 -28 -2 -43
43 -43 134 1 115 10 149 62 217 60 79 119 104 233 100 80 -4 182 -21 220 -39
11 -5 35 -37 52 -71 39 -74 48 -157 32 -273 -11 -85 -28 -120 -61 -133 -21 -8
-60 -104 -51 -127 4 -10 164 -94 180 -94 4 0 33 -13 63 -29 67 -35 113 -43
118 -20 2 10 -6 19 -19 22 -27 7 -19 33 9 29 29 -4 30 28 2 35 -29 8 -25 33 5
33 33 0 33 26 -1 34 -30 8 -27 30 4 34 31 5 28 32 -4 32 -14 0 -23 4 -19 10 3
6 15 10 26 10 10 0 19 7 19 15 0 9 -9 15 -25 15 -15 0 -25 6 -25 14 0 8 11 17
25 20 14 4 25 13 25 21 0 9 -10 15 -25 15 -30 0 -34 25 -5 33 11 3 20 13 20
22 0 13 -6 16 -24 11 -34 -8 -43 11 -11 26 35 16 29 44 -8 40 -32 -4 -36 13
-7 28 23 13 28 45 5 36 -8 -3 -22 -9 -30 -12 -23 -9 -18 23 5 36 11 6 20 17
20 25 0 17 -26 20 -35 5 -3 -5 -10 -10 -16 -10 -16 0 -10 26 11 45 14 12 17
22 10 29 -6 6 -16 4 -29 -8 -29 -26 -38 0 -10 30 16 17 19 28 12 35 -7 7 -14
5 -23 -6 -13 -16 -40 -21 -40 -6 0 5 7 14 15 21 17 14 20 50 5 50 -6 0 -13 -7
-16 -15 -4 -8 -13 -15 -21 -15 -8 0 -13 3 -11 8 2 4 10 19 17 35 19 36 5 49
-20 18 -25 -30 -35 -21 -19 18 16 40 2 63 -17 27 -7 -14 -19 -26 -24 -26 -11
0 -10 7 8 63 7 24 -14 22 -27 -3 -6 -11 -16 -20 -22 -20 -10 0 -9 7 9 63 3 11
0 17 -10 17 -8 0 -18 -11 -21 -25 -11 -42 -27 -29 -20 16 6 33 4 41 -7 37 -8
-2 -15 -14 -17 -26 -2 -12 -10 -22 -19 -22 -8 0 -13 6 -10 13 17 46 18 57 3
57 -8 0 -16 -10 -18 -22 -2 -12 -9 -23 -16 -26 -10 -3 -12 6 -10 33 2 23 -2
40 -9 42 -7 3 -13 -9 -15 -28 -2 -18 -9 -34 -16 -37 -10 -3 -13 5 -10 29 4 43
-15 55 -22 14 -6 -35 -25 -31 -25 5 0 38 -20 40 -23 3 -4 -42 -20 -43 -24 -1
-4 46 -28 49 -28 4 0 -44 -18 -48 -22 -4 -4 46 -28 49 -28 4z"/>
<path d="M6720 3682 c0 -4 5 -13 11 -19 8 -8 -6 -19 -47 -42 -32 -17 -64 -31
-71 -31 -16 0 -17 -14 -2 -41 9 -18 13 -19 27 -6 22 18 112 67 124 67 6 0 8
-7 4 -15 -3 -9 0 -15 9 -15 8 0 15 4 15 10 0 21 -45 100 -57 100 -7 0 -13 -4
-13 -8z"/>
<path d="M5605 3610 c-3 -6 1 -7 9 -4 18 7 21 14 7 14 -6 0 -13 -4 -16 -10z"/>
<path d="M5214 3575 c-18 -28 -24 -79 -9 -82 6 -1 9 5 7 13 -4 20 10 18 80
-16 58 -28 64 -29 75 -13 19 25 16 38 -10 40 -50 3 -151 63 -106 63 5 0 7 5 4
10 -10 16 -24 12 -41 -15z"/>
<path d="M6728 3507 c-67 -28 -77 -35 -72 -52 4 -11 7 -21 8 -22 2 -2 157 58
164 63 6 4 -9 44 -16 43 -4 -1 -42 -15 -84 -32z"/>
<path d="M6796 3383 c-11 -11 -6 -23 9 -23 8 0 15 4 15 9 0 13 -16 22 -24 14z"/>
<path d="M5193 3345 c0 -8 4 -15 8 -15 4 0 9 7 13 15 3 9 0 15 -8 15 -7 0 -13
-7 -13 -15z"/>
<path d="M6753 3279 c3 -9 0 -22 -6 -28 -8 -8 -6 -11 8 -11 10 0 27 -7 37 -17
36 -33 30 -2 -7 35 -21 20 -36 30 -32 21z"/>
<path d="M5336 3265 c-3 -8 -16 -20 -28 -25 -15 -5 -17 -9 -7 -9 17 -1 56 36
47 44 -3 3 -8 -1 -12 -10z"/>
<path d="M6676 3256 c3 -9 16 -16 28 -15 14 0 16 2 6 6 -8 3 -21 10 -28 16 -9
7 -11 6 -6 -7z"/>
<path d="M5226 3245 c-3 -9 -20 -18 -38 -22 -30 -6 -30 -7 -9 -15 15 -5 32 -3
52 8 25 12 28 18 18 30 -14 18 -16 17 -23 -1z"/>
<path d="M5124 3155 c-22 -19 -34 -35 -29 -35 6 0 18 8 27 18 23 24 41 38 58
45 12 4 12 6 -1 6 -9 1 -34 -15 -55 -34z"/>
<path d="M6785 3180 c3 -5 8 -10 11 -10 2 0 4 5 4 10 0 6 -5 10 -11 10 -5 0
-7 -4 -4 -10z"/>
<path d="M6850 3183 c24 -9 49 -34 64 -64 15 -30 5 -79 -23 -113 -16 -19 -57
-21 -64 -3 -4 9 -6 9 -6 0 -1 -7 15 -20 35 -28 44 -18 44 -18 44 -2 1 6 9 30
20 52 25 51 25 70 -1 111 -21 35 -48 55 -71 53 -9 0 -8 -2 2 -6z"/>
<path d="M5200 3170 c0 -5 5 -10 11 -10 5 0 7 5 4 10 -3 6 -8 10 -11 10 -2 0
-4 -4 -4 -10z"/>
<path d="M5944 3161 c4 -6 -8 -14 -26 -19 -36 -9 -47 -39 -13 -34 11 2 30 3
43 3 12 -1 22 3 22 8 0 6 12 11 28 13 46 5 34 33 -16 36 -28 2 -42 0 -38 -7z"/>
<path d="M6176 3158 c-71 -10 -80 -27 -29 -55 18 -10 25 -10 35 1 11 11 14 11
23 -1 13 -18 45 -7 45 16 -1 36 -22 47 -74 39z"/>
<path d="M5372 3140 c0 -14 2 -19 5 -12 2 6 2 18 0 25 -3 6 -5 1 -5 -13z"/>
<path d="M6760 3115 c-10 -12 -9 -15 8 -15 11 0 22 7 26 15 3 9 0 15 -8 15 -7
0 -19 -7 -26 -15z"/>
<path d="M5210 3105 c0 -8 9 -15 20 -15 24 0 27 15 4 24 -22 9 -24 8 -24 -9z"/>
<path d="M5083 3075 c0 -22 2 -30 4 -17 2 12 2 30 0 40 -3 9 -5 -1 -4 -23z"/>
<path d="M6846 3081 c-4 -5 -2 -12 3 -15 5 -4 12 -2 15 3 4 5 2 12 -3 15 -5 4
-12 2 -15 -3z"/>
<path d="M6811 3034 c0 -11 3 -14 6 -6 3 7 2 16 -1 19 -3 4 -6 -2 -5 -13z"/>
<path d="M5350 3018 c0 -12 3 -18 7 -14 11 10 12 36 2 36 -5 0 -9 -10 -9 -22z"/>
<path d="M5090 3018 c0 -9 5 -20 10 -23 6 -4 8 -16 4 -27 -5 -17 -3 -18 15 -9
26 15 26 16 -4 49 -19 21 -25 23 -25 10z"/>
<path d="M5351 2883 c-3 -270 111 -537 298 -696 173 -148 381 -177 576 -82 55
27 116 71 80 58 -11 -4 -34 -15 -51 -25 -60 -35 -147 -58 -226 -58 -349 -1
-616 313 -663 780 l-12 125 -2 -102z"/>
<path d="M6020 2945 c50 -19 90 -19 90 1 0 14 -3 14 -15 4 -12 -10 -21 -10
-41 -1 -14 6 -35 11 -47 10 -17 0 -14 -4 13 -14z"/>
<path d="M5945 2880 c-9 -14 7 -17 110 -25 103 -7 109 9 9 25 -76 13 -111 13
-119 0z"/>
<path d="M5096 2803 c-20 -110 -19 -129 8 -159 14 -16 26 -24 26 -18 0 6 -9
19 -20 29 -32 29 -27 87 11 130 23 26 27 35 15 35 -9 0 -16 5 -16 10 0 6 -4
10 -9 10 -5 0 -12 -17 -15 -37z"/>
<path d="M6870 2810 c-12 -8 -12 -10 2 -15 19 -7 58 -68 58 -89 0 -27 -28 -67
-69 -96 -22 -17 -41 -32 -41 -35 0 -15 24 0 69 43 57 54 65 87 35 143 -8 17
-13 37 -10 45 6 16 -21 19 -44 4z"/>
<path d="M6040 2806 c0 -2 9 -6 20 -9 11 -3 20 -1 20 4 0 5 -9 9 -20 9 -11 0
-20 -2 -20 -4z"/>
<path d="M6820 2779 c-6 -11 -10 -25 -8 -30 2 -5 8 4 15 21 13 34 9 40 -7 9z"/>
<path d="M5871 2748 c6 -13 25 -34 44 -48 18 -14 33 -27 33 -30 -1 -22 7 -31
41 -41 29 -9 43 -8 60 1 19 10 20 14 9 27 -10 13 -10 17 -1 20 7 3 23 13 35
24 l23 19 -45 -2 c-66 -1 -131 11 -166 33 -40 25 -46 24 -33 -3z"/>
<path d="M6167 2753 c-4 -3 -7 -17 -7 -30 0 -13 -9 -41 -20 -63 -11 -21 -16
-41 -11 -44 4 -3 6 -16 4 -29 -6 -32 29 -43 52 -16 20 22 21 45 5 124 -13 66
-14 68 -23 58z"/>
<path d="M6842 2714 c-11 -12 -9 -14 8 -14 11 0 20 4 20 9 0 17 -15 19 -28 5z"/>
<path d="M5210 2684 c0 -17 22 -14 28 4 2 7 -3 12 -12 12 -9 0 -16 -7 -16 -16z"/>
<path d="M6762 2678 c3 -7 13 -15 22 -16 12 -3 17 1 14 10 -3 7 -13 15 -22 16
-12 3 -17 -1 -14 -10z"/>
<path d="M6537 2656 c-6 -15 19 -30 33 -21 13 8 1 35 -15 35 -7 0 -15 -6 -18
-14z"/>
<path d="M6621 2644 c0 -11 3 -14 6 -6 3 7 2 16 -1 19 -3 4 -6 -2 -5 -13z"/>
<path d="M5455 2630 c-8 -13 -1 -24 14 -19 6 3 7 10 2 18 -6 10 -10 10 -16 1z"/>
<path d="M5200 2620 c0 -5 5 -10 11 -10 5 0 7 5 4 10 -3 6 -8 10 -11 10 -2 0
-4 -4 -4 -10z"/>
<path d="M5170 2600 c0 -5 5 -10 11 -10 5 0 7 5 4 10 -3 6 -8 10 -11 10 -2 0
-4 -4 -4 -10z"/>
<path d="M6514 2598 c-4 -6 1 -17 11 -25 23 -16 41 3 23 24 -13 16 -25 17 -34
1z"/>
<path d="M6790 2599 c0 -5 5 -7 10 -4 6 3 10 8 10 11 0 2 -4 4 -10 4 -5 0 -10
-5 -10 -11z"/>
<path d="M5176 2572 c-2 -4 5 -9 17 -9 11 -1 25 -9 29 -18 11 -19 28 -20 28
-2 0 8 -11 19 -25 25 -30 14 -42 15 -49 4z"/>
<path d="M5475 2570 c-4 -6 -3 -16 3 -22 13 -13 23 4 13 21 -7 10 -10 10 -16
1z"/>
<path d="M6775 2555 c-16 -8 -42 -12 -56 -9 -16 3 -30 -1 -38 -9 -10 -12 -5
-14 34 -9 34 3 45 1 45 -9 1 -11 4 -10 13 2 7 9 28 20 47 24 30 7 32 9 15 16
-26 10 -25 10 -60 -6z"/>
<path d="M5304 2545 c36 -19 42 -19 26 0 -7 8 -22 15 -34 15 -18 0 -17 -2 8
-15z"/>
<path d="M6494 2539 c-7 -12 15 -41 27 -33 14 8 11 31 -6 37 -8 4 -17 2 -21
-4z"/>
<path d="M5500 2510 c-12 -7 -12 -12 -3 -21 15 -15 26 -7 21 15 -2 11 -7 13
-18 6z"/>
<path d="M6466 2481 c-8 -12 21 -34 34 -26 8 5 8 11 -1 21 -13 16 -25 18 -33
5z"/>
<path d="M5190 2439 c0 -12 5 -16 15 -13 8 4 15 12 15 18 0 7 -7 13 -15 13 -8
0 -15 -8 -15 -18z"/>
<path d="M5527 2454 c-8 -8 1 -24 14 -24 5 0 9 7 9 15 0 15 -12 20 -23 9z"/>
<path d="M6440 2428 c0 -7 5 -20 10 -28 7 -12 12 -12 21 -3 9 9 9 16 -1 28
-15 18 -30 20 -30 3z"/>
<path d="M6797 2423 c-3 -5 -2 -15 2 -22 7 -10 10 -10 16 -1 4 6 3 16 -3 22
-5 5 -12 6 -15 1z"/>
<path d="M5561 2396 c-8 -10 -9 -16 -1 -21 5 -3 13 1 16 10 9 22 -1 29 -15 11z"/>
<path d="M6405 2380 c-9 -15 16 -43 27 -32 10 10 0 42 -12 42 -5 0 -12 -5 -15
-10z"/>
<path d="M5325 2325 c-33 -19 -64 -33 -69 -32 -15 3 -17 -18 -2 -38 14 -19 15
-19 35 -1 30 27 39 11 11 -19 -13 -14 -20 -31 -17 -39 9 -22 20 -20 47 9 13
14 35 25 49 25 53 0 64 26 42 93 -7 20 -18 36 -24 36 -7 -1 -39 -16 -72 -34z
m85 -29 c0 -15 -21 -26 -48 -26 -14 1 -12 5 7 20 27 23 41 25 41 6z"/>
<path d="M5595 2350 c-4 -6 -3 -16 3 -22 6 -6 12 -6 17 2 4 6 3 16 -3 22 -6 6
-12 6 -17 -2z"/>
<path d="M6590 2309 c-20 -43 -22 -52 -10 -59 11 -7 16 -4 18 10 2 11 5 20 8
20 3 0 33 -15 67 -32 34 -18 65 -34 68 -36 8 -4 29 45 22 52 -4 3 -12 6 -18 6
-22 0 -130 53 -117 58 16 5 15 32 -1 32 -8 0 -24 -23 -37 -51z"/>
<path d="M6370 2327 c0 -8 7 -21 16 -28 14 -11 15 -10 12 11 -3 26 -28 41 -28
17z"/>
<path d="M5630 2294 c0 -17 22 -14 28 4 2 7 -3 12 -12 12 -9 0 -16 -7 -16 -16z"/>
<path d="M6336 2291 c-8 -12 3 -41 15 -41 12 0 12 37 0 45 -5 3 -12 1 -15 -4z"/>
<path d="M5674 2266 c-8 -22 3 -33 18 -18 9 9 9 15 0 24 -9 9 -13 7 -18 -6z"/>
<path d="M6292 2244 c1 -9 9 -19 16 -22 9 -3 13 2 10 14 -1 9 -9 19 -16 22 -9
3 -13 -2 -10 -14z"/>
<path d="M5715 2230 c-8 -13 4 -32 16 -25 12 8 12 35 0 35 -6 0 -13 -4 -16
-10z"/>
<path d="M6250 2211 c0 -11 4 -21 9 -21 18 0 21 18 6 30 -13 10 -15 9 -15 -9z"/>
<path d="M5765 2200 c-4 -6 -3 -16 3 -22 6 -6 12 -6 17 2 4 6 3 16 -3 22 -6 6
-12 6 -17 -2z"/>
<path d="M6346 2195 c-11 -8 -17 -17 -14 -20 2 -3 13 4 23 15 21 23 18 25 -9
5z"/>
<path d="M6200 2180 c0 -11 7 -20 15 -20 8 0 15 9 15 20 0 11 -7 20 -15 20 -8
0 -15 -9 -15 -20z"/>
<path d="M6520 2185 c0 -8 8 -15 18 -15 18 0 42 -18 42 -31 0 -3 -22 -4 -49
-1 -42 4 -51 1 -60 -17 -10 -17 -9 -21 3 -21 8 0 40 -20 70 -45 59 -48 76 -54
76 -30 0 8 -6 15 -13 15 -18 0 -80 47 -70 53 4 3 33 1 63 -4 30 -5 58 -5 62
-1 4 4 -16 26 -45 47 -28 22 -56 45 -60 52 -11 18 -37 16 -37 -2z"/>
<path d="M5434 2147 c-28 -23 -59 -47 -69 -53 -18 -10 -17 -13 11 -47 17 -23
36 -36 47 -35 24 4 23 22 -3 26 -25 4 -26 20 -2 38 23 18 32 17 32 -1 0 -18 5
-18 31 -5 23 13 25 30 4 30 -18 0 -19 12 -3 28 18 18 38 14 38 -8 0 -11 7 -20
15 -20 8 0 15 5 15 11 0 13 -50 79 -59 78 -3 0 -29 -19 -57 -42z"/>
<path d="M5810 2165 c0 -8 5 -15 10 -15 6 0 10 7 10 15 0 8 -4 15 -10 15 -5 0
-10 -7 -10 -15z"/>
<path d="M6155 2170 c-7 -12 2 -30 16 -30 12 0 12 27 0 35 -5 3 -12 1 -16 -5z"/>
<path d="M5860 2151 c0 -12 5 -21 10 -21 6 0 10 6 10 14 0 8 -4 18 -10 21 -5
3 -10 -3 -10 -14z"/>
<path d="M5910 2141 c0 -12 5 -21 10 -21 6 0 10 6 10 14 0 8 -4 18 -10 21 -5
3 -10 -3 -10 -14z"/>
<path d="M6058 2147 c-6 -16 1 -37 13 -37 12 0 12 37 0 44 -5 3 -11 0 -13 -7z"/>
<path d="M6110 2140 c0 -11 5 -20 10 -20 6 0 10 9 10 20 0 11 -4 20 -10 20 -5
0 -10 -9 -10 -20z"/>
<path d="M6010 2140 c-12 -7 -12 -12 -3 -21 15 -15 26 -7 21 15 -2 11 -7 13
-18 6z"/>
<path d="M5960 2125 c0 -8 5 -15 10 -15 6 0 10 7 10 15 0 8 -4 15 -10 15 -5 0
-10 -7 -10 -15z"/>
<path d="M5747 2051 c-17 -29 -17 -30 4 -41 26 -14 39 -3 42 36 3 39 -24 42
-46 5z"/>
<path d="M6238 2045 c26 -53 45 -44 20 10 -6 14 -17 25 -24 25 -11 0 -10 -8 4
-35z"/>
<path d="M5570 2031 c-5 -11 -10 -35 -10 -55 0 -45 -9 -66 -27 -66 -9 0 -13 8
-11 23 3 27 -13 35 -27 12 -8 -13 -4 -22 18 -41 15 -13 34 -24 41 -24 26 0 45
36 48 89 3 61 28 86 28 30 0 -31 1 -32 17 -16 15 14 15 20 3 42 -17 31 -64 35
-80 6z"/>
<path d="M5821 2019 c-13 -38 -13 -39 -3 -39 9 0 32 44 32 60 0 22 -19 8 -29
-21z"/>
<path d="M6150 2041 c0 -15 58 -52 64 -42 4 5 -6 19 -20 30 -29 23 -44 27 -44
12z"/>
<path d="M5880 2023 c0 -10 -3 -29 -7 -42 -5 -20 -3 -23 10 -18 9 3 20 1 24
-6 5 -7 10 1 13 23 4 19 2 41 -3 48 -14 18 -37 15 -37 -5z"/>
<path d="M6090 2016 c0 -18 37 -63 45 -54 8 8 -22 68 -35 68 -6 0 -10 -6 -10
-14z"/>
<path d="M6365 2020 c-3 -5 7 -33 22 -62 15 -29 32 -65 38 -80 8 -21 13 -25
25 -17 13 8 13 11 -2 23 -19 14 -24 41 -9 50 14 9 41 -4 41 -20 0 -19 24 -18
40 1 7 9 11 17 9 19 -2 2 -33 24 -69 50 -65 46 -84 54 -95 36z m63 -68 c2 -7
-2 -10 -12 -6 -9 3 -16 11 -16 16 0 13 23 5 28 -10z"/>
<path d="M5960 1985 c0 -19 5 -35 10 -35 6 0 10 16 10 35 0 19 -4 35 -10 35
-5 0 -10 -16 -10 -35z"/>
<path d="M6023 1985 c6 -19 14 -35 19 -35 4 0 8 16 8 35 0 28 -4 35 -19 35
-17 0 -18 -3 -8 -35z"/>
<path d="M5710 1955 c0 -8 7 -15 15 -15 12 0 10 -10 -11 -52 -14 -29 -33 -61
-42 -71 -14 -16 -14 -19 -2 -27 21 -14 50 -12 50 2 0 23 55 118 68 118 6 0 12
-5 12 -11 0 -5 5 -7 10 -4 20 12 9 25 -40 50 -58 29 -60 30 -60 10z"/>
<path d="M6205 1923 c-16 -8 -32 -17 -34 -19 -2 -2 10 -30 28 -63 17 -32 31
-68 31 -80 0 -12 3 -21 6 -21 5 0 45 19 52 25 2 2 -4 15 -13 29 -21 31 -10 34
21 5 16 -15 29 -19 45 -14 22 7 22 8 -15 42 -28 26 -35 39 -31 54 8 24 -19 59
-44 59 -9 -1 -29 -8 -46 -17z m51 -38 c12 -48 -16 -45 -31 3 -5 16 -2 22 9 22
9 0 18 -11 22 -25z"/>
<path d="M5871 1860 c-6 -18 -6 -30 0 -30 5 0 9 -5 9 -11 0 -6 -6 -9 -14 -6
-10 4 -23 -9 -40 -39 -13 -24 -20 -44 -15 -44 21 0 24 2 21 14 -3 18 25 39 43
32 10 -4 13 -14 9 -34 -5 -24 -2 -30 15 -35 12 -3 22 -2 24 1 2 4 1 46 -1 95
-3 76 -6 87 -22 87 -11 0 -22 -12 -29 -30z"/>
<path d="M6093 1882 c-8 -5 -8 -12 3 -26 13 -19 14 -19 14 7 0 30 0 30 -17 19z"/>
<path d="M6004 1848 c3 -18 8 -53 12 -78 4 -25 11 -51 17 -57 12 -16 59 -17
75 -1 14 14 16 87 2 108 -6 10 -7 -2 -3 -37 5 -44 3 -54 -11 -59 -27 -11 -35
7 -38 84 -3 72 -3 72 -32 72 -26 0 -28 -2 -22 -32z"/>
<path d="M6251 1634 c0 -11 3 -14 6 -6 3 7 2 16 -1 19 -3 4 -6 -2 -5 -13z"/>
<path d="M5882 1605 c0 -16 2 -22 5 -12 2 9 2 23 0 30 -3 6 -5 -1 -5 -18z"/>
<path d="M6133 1613 c-3 -10 -8 -21 -10 -25 -2 -5 1 -8 6 -8 6 0 11 7 11 15 0
7 8 19 18 24 16 10 16 10 -1 11 -10 0 -20 -8 -24 -17z"/>
<path d="M5765 1610 c4 -6 11 -8 16 -5 14 9 11 15 -7 15 -8 0 -12 -5 -9 -10z"/>
<path d="M5944 1605 c3 -9 0 -15 -8 -15 -8 0 -17 6 -19 13 -4 7 -6 6 -6 -4 -1
-19 30 -31 49 -19 9 5 9 9 1 14 -6 4 -9 12 -6 17 4 5 1 9 -5 9 -7 0 -10 -7 -6
-15z"/>
<path d="M5846 1595 c-3 -8 -1 -15 4 -15 6 0 10 7 10 15 0 8 -2 15 -4 15 -2 0
-6 -7 -10 -15z"/>
<path d="M6050 1589 c0 -11 4 -18 10 -14 5 3 7 12 3 20 -7 21 -13 19 -13 -6z"/>
<path d="M6237 1593 c-4 -3 -7 -11 -7 -17 0 -6 5 -5 12 2 6 6 9 14 7 17 -3 3
-9 2 -12 -2z"/>
<path d="M5760 1579 c0 -5 5 -7 10 -4 6 3 10 8 10 11 0 2 -4 4 -10 4 -5 0 -10
-5 -10 -11z"/>
<path d="M5808 1583 c7 -3 16 -2 19 1 4 3 -2 6 -13 5 -11 0 -14 -3 -6 -6z"/>
</g>
</svg>
